<svg xmlns="http://www.w3.org/2000/svg" version="1.1" xmlns:xlink="http://www.w3.org/1999/xlink" xmlns:svgjs="http://svgjs.dev/svgjs" width="1000" height="639" viewBox="0 0 1000 639"><g transform="matrix(1,0,0,1,0.03564766839377853,0.25870445344128257)"><svg viewBox="0 0 386 247" data-background-color="#ffffff" preserveAspectRatio="xMidYMid meet" height="639" width="1000" xmlns="http://www.w3.org/2000/svg" xmlns:xlink="http://www.w3.org/1999/xlink"><g id="tight-bounds" transform="matrix(1,0,0,1,-0.013759999999990669,-0.09999999999999432)"><svg viewBox="0 0 386.02752 247.2" height="247.2" width="386.02752"><g><svg viewBox="0 0 386.02752 247.2" height="247.2" width="386.02752"><g><svg viewBox="0 0 386.02752 247.2" height="247.2" width="386.02752"><g id="textblocktransform"><svg viewBox="0 0 386.02752 247.2" height="247.2" width="386.02752" id="textblock"><g><svg viewBox="0 0 386.02752 247.2" height="247.2" width="386.02752"><g transform="matrix(1,0,0,1,0,0)"><svg width="386.02752" viewBox="-12.05 -31.25 48.8 31.25" height="247.2" data-palette-color="#ecce43"><path d="M12.05-2.4L11.65-0.15-9.5-2.4 12.05-2.4ZM12.85-7.25L12.5-5-8.65-7.25 12.85-7.25ZM12.4-12.05L12.85-9.8-8.35-12.05 12.4-12.05ZM11.45-16.85L11.9-14.6-9.3-16.85 11.45-16.85ZM-11.15-26.45L9.55-26.45 10-24.2-11.15-26.45ZM-10.2-21.65L10.5-21.65 10.95-19.4-10.2-21.65ZM8.65-31.25L9.1-29-12.05-31.25 8.65-31.25ZM10.15-31.25L20.65-31.25 21.3-20.25 21.65-20.25 26.25-31.25 36.75-31.25 24.15-8.5 22.7 0 13.2 0 14.65-8.5 10.15-31.25Z" opacity="1" transform="matrix(1,0,0,1,0,0)" fill="#ecce43" class="wordmark-text-0" data-fill-palette-color="primary" id="text-0"></path></svg></g></svg></g></svg></g></svg></g></svg></g><defs></defs></svg><rect width="386.02752" height="247.2" fill="none" stroke="none" visibility="hidden"></rect></g></svg></g></svg>